<svg xmlns="http://www.w3.org/2000/svg" width="149.272" height="31.941" viewBox="0 0 149.272 31.941"><g transform="translate(-488.493 -730.559)"><path d="M631.013,762.188V732.1h8.222V754.5h9.23v7.689Z" transform="translate(-61.144 -0.663)"/><path d="M584.093,762.188V732.1h8.222v10.548h8.291V732.1h8.222v30.084h-8.222V751h-8.291v11.192Z" transform="translate(-41.015 -0.663)"/><path d="M515.142,732.107l-11.88,14.327L516.835,762.2l-10.882-.006-9.22-10.732h-.018v10.727h-8.222V732.1h8.221v9.011l-.064.007,7.831-9.015Z" transform="translate(0 -0.663)"/><path d="M527.365,746.233a15.513,15.513,0,1,1,15.512,15.674A15.594,15.594,0,0,1,527.365,746.233Zm15.8.285-.286,7.426c3.856,0,6.982-3.455,6.982-7.717s-3.126-7.717-6.982-7.717-6.982,3.455-6.982,7.717S539.021,753.944,542.877,753.944Zm.286-7.426" transform="translate(-16.677 0)"/><path d="M672.781,732.1h8.447v6.931l-8.255.018-.03,4.749h7.627v6.735h-7.615l.006,4.591H681.3v7.061H664.537V732.1Z" transform="translate(-75.527 -0.663)"/><path d="M712.3,750.156l8.555,12.038-8.978-.015-6.7-9.236v9.218h-8.056V732.083h10.308C716.49,732.083,722.246,743.461,712.3,750.156Zm-4.826-5.3a2.9,2.9,0,0,0,0-5.794h-2.33v5.788Zm0-2.9" transform="translate(-89.503 -0.654)"/><path d="M740.428,779.7a2.712,2.712,0,1,1,2.712,2.712A2.7,2.7,0,0,1,740.428,779.7Zm4.78,0a2.068,2.068,0,1,0-2.068,2.068A2.019,2.019,0,0,0,745.208,779.7Zm-.767,1.377h-.685l-.63-1.192h-.438v1.192h-.63v-2.821h1.369c.651,0,1.1.116,1.1.863,0,.521-.267.733-.767.767Zm-1-1.616c.315,0,.493-.068.493-.424,0-.287-.364-.287-.637-.287h-.61v.711Z" transform="translate(-108.086 -19.914)"/></g></svg>